<svg id="Layer_1" data-name="Layer 1" xmlns="http://www.w3.org/2000/svg" viewBox="0 0 150 150"><defs><style>.cls-1{fill:#121212;}.cls-2{fill:#f9f6fb;}.cls-3{fill:#e6e7e8;}</style></defs><polygon class="cls-1" points="0 0 0 150 1.1 150 40.78 110.32 71.6 79.5 150 1.1 150 0 0 0"/><polygon class="cls-2" points="71.6 79.5 40.78 110.32 1.1 150 150 150 150 1.1 71.6 79.5"/><path class="cls-3" d="M48.87,102.23a29.2,29.2,0,0,0,13.59-10.8v11.12h4.12v-18Z"/><path class="cls-3" d="M66.58,11H62.46V47.65A29,29,0,0,0,38.57,34.7C20.74,34.7,9,48.41,9,69.45s11.79,34.74,29.62,34.74a29,29,0,0,0,10.3-2L66.58,84.51ZM62.46,87.33a28.8,28.8,0,0,1-23.89,13.16c-16.19,0-25.11-13.55-25.11-31s8.9-31.18,25.11-31.18A29,29,0,0,1,62.46,51.77Z"/><polygon class="cls-1" points="65.63 114.38 63.94 114.38 63.94 125.89 53.17 125.89 53.17 127.49 63.94 127.49 63.94 139.33 65.63 139.33 65.63 127.49 76.4 127.49 76.4 125.89 65.63 125.89 65.63 114.38"/><path class="cls-1" d="M117.24,73.07A22.29,22.29,0,0,1,136.59,83l3-2.45c-5.63-7-11.79-11.12-22.63-11.12-19.23,0-31.3,15.64-31.3,34.75S97.74,139,117,139c10.84,0,17-4.1,22.63-11.12l-3-2.59a22.41,22.41,0,0,1-19.35,10c-17,0-27-13.9-27-31.16S100.26,73.07,117.24,73.07Z"/></svg>